<?xml version="1.0" encoding="utf-8" standalone="no"?>
<!DOCTYPE svg PUBLIC "-//W3C//DTD SVG 1.1//EN"
  "http://www.w3.org/Graphics/SVG/1.1/DTD/svg11.dtd">
<svg xmlns:xlink="http://www.w3.org/1999/xlink" width="521.574803pt" height="334.488189pt" viewBox="0 0 521.574803 334.488189" xmlns="http://www.w3.org/2000/svg" version="1.1">
 <metadata>
  <rdf:RDF xmlns:dc="http://purl.org/dc/elements/1.1/" xmlns:cc="http://creativecommons.org/ns#" xmlns:rdf="http://www.w3.org/1999/02/22-rdf-syntax-ns#">
   <cc:Work>
    <dc:type rdf:resource="http://purl.org/dc/dcmitype/StillImage"/>
    <dc:date>2026-09-27T12:20:11.950519</dc:date>
    <dc:format>image/svg+xml</dc:format>
    <dc:creator>
     <cc:Agent>
      <dc:title>Matplotlib v3.11.2, https://matplotlib.org/</dc:title>
     </cc:Agent>
    </dc:creator>
   </cc:Work>
  </rdf:RDF>
 </metadata>
 <defs>
  <style type="text/css">*{stroke-linejoin: round; stroke-linecap: butt}</style>
 </defs>
 <g id="figure_1">
  <g id="patch_1">
   <path d="M 0 334.488189 
L 521.574803 334.488189 
L 521.574803 0 
L 0 0 
z
" style="fill: #ffffff"/>
  </g>
  <g id="axes_1">
   <g id="patch_2">
    <path d="M 11.338583 136.062992 
L 513.070866 136.062992 
L 513.070866 17.007874 
L 11.338583 17.007874 
z
" clip-path="url(#p3ad7eb5326)" style="fill: #fafafa; stroke: #c8c8c8; stroke-width: 0.5; stroke-linejoin: miter"/>
   </g>
   <g id="patch_3">
    <path d="M 11.338583 300.472441 
L 513.070866 300.472441 
L 513.070866 187.086614 
L 11.338583 187.086614 
z
" clip-path="url(#p3ad7eb5326)" style="fill: #fafafa; stroke: #c8c8c8; stroke-width: 0.5; stroke-linejoin: miter"/>
   </g>
   <g id="patch_4">
    <path d="M 107.716535 87.874016 
Q 116.220472 87.874016 124.010504 87.874016 
" clip-path="url(#p3ad7eb5326)" style="fill: none; stroke: #3c3c3c; stroke-width: 0.7; stroke-linecap: round"/>
    <path d="M 122.410504 86.974016 
L 124.010504 87.874016 
L 122.410504 88.774016 
z
" clip-path="url(#p3ad7eb5326)" style="fill: #3c3c3c; stroke: #3c3c3c; stroke-width: 0.7; stroke-linecap: round"/>
   </g>
   <g id="patch_5">
    <path d="M 204.094488 87.874016 
Q 212.598425 87.874016 220.388457 87.874016 
" clip-path="url(#p3ad7eb5326)" style="fill: none; stroke: #3c3c3c; stroke-width: 0.7; stroke-linecap: round"/>
    <path d="M 218.788457 86.974016 
L 220.388457 87.874016 
L 218.788457 88.774016 
z
" clip-path="url(#p3ad7eb5326)" style="fill: #3c3c3c; stroke: #3c3c3c; stroke-width: 0.7; stroke-linecap: round"/>
   </g>
   <g id="patch_6">
    <path d="M 311.811024 87.874016 
Q 320.314961 87.874016 328.104993 87.874016 
" clip-path="url(#p3ad7eb5326)" style="fill: none; stroke: #3c3c3c; stroke-width: 0.7; stroke-linecap: round"/>
    <path d="M 326.504993 86.974016 
L 328.104993 87.874016 
L 326.504993 88.774016 
z
" clip-path="url(#p3ad7eb5326)" style="fill: #3c3c3c; stroke: #3c3c3c; stroke-width: 0.7; stroke-linecap: round"/>
   </g>
   <g id="patch_7">
    <path d="M 266.456693 119.055118 
Q 266.456693 133.228346 266.456693 146.68767 
" clip-path="url(#p3ad7eb5326)" style="fill: none; stroke: #3c3c3c; stroke-width: 0.7; stroke-linecap: round"/>
    <path d="M 267.356693 145.08767 
L 266.456693 146.68767 
L 265.556693 145.08767 
z
" clip-path="url(#p3ad7eb5326)" style="fill: #3c3c3c; stroke: #3c3c3c; stroke-width: 0.7; stroke-linecap: round"/>
   </g>
   <g id="patch_8">
    <path d="M 374.173228 119.055118 
Q 374.173228 133.228346 374.173228 146.68767 
" clip-path="url(#p3ad7eb5326)" style="fill: none; stroke: #3c3c3c; stroke-width: 0.7; stroke-linecap: round"/>
    <path d="M 375.073228 145.08767 
L 374.173228 146.68767 
L 373.273228 145.08767 
z
" clip-path="url(#p3ad7eb5326)" style="fill: #3c3c3c; stroke: #3c3c3c; stroke-width: 0.7; stroke-linecap: round"/>
   </g>
   <g id="patch_9">
    <path d="M 107.716535 252.283465 
Q 116.220472 252.283465 124.010504 252.283465 
" clip-path="url(#p3ad7eb5326)" style="fill: none; stroke: #3c3c3c; stroke-width: 0.7; stroke-linecap: round"/>
    <path d="M 122.410504 251.383465 
L 124.010504 252.283465 
L 122.410504 253.183465 
z
" clip-path="url(#p3ad7eb5326)" style="fill: #3c3c3c; stroke: #3c3c3c; stroke-width: 0.7; stroke-linecap: round"/>
   </g>
   <g id="patch_10">
    <path d="M 167.244094 221.102362 
Q 167.244094 201.259843 167.244094 182.131228 
" clip-path="url(#p3ad7eb5326)" style="fill: none; stroke: #3c3c3c; stroke-width: 0.7; stroke-linecap: round"/>
    <path d="M 166.344094 183.731228 
L 167.244094 182.131228 
L 168.144094 183.731228 
z
" clip-path="url(#p3ad7eb5326)" style="fill: #3c3c3c; stroke: #3c3c3c; stroke-width: 0.7; stroke-linecap: round"/>
   </g>
   <g id="patch_11">
    <path d="M 277.795276 181.417323 
Q 277.795276 201.259843 277.795276 220.388457 
" clip-path="url(#p3ad7eb5326)" style="fill: none; stroke: #3c3c3c; stroke-width: 0.7; stroke-linecap: round"/>
    <path d="M 278.695276 218.788457 
L 277.795276 220.388457 
L 276.895276 218.788457 
z
" clip-path="url(#p3ad7eb5326)" style="fill: #3c3c3c; stroke: #3c3c3c; stroke-width: 0.7; stroke-linecap: round"/>
   </g>
   <g id="patch_12">
    <path d="M 323.149606 252.283465 
Q 331.653543 252.283465 339.443575 252.283465 
" clip-path="url(#p3ad7eb5326)" style="fill: none; stroke: #3c3c3c; stroke-width: 0.7; stroke-linecap: round"/>
    <path d="M 337.843575 251.383465 
L 339.443575 252.283465 
L 337.843575 253.183465 
z
" clip-path="url(#p3ad7eb5326)" style="fill: #3c3c3c; stroke: #3c3c3c; stroke-width: 0.7; stroke-linecap: round"/>
   </g>
   <g id="line2d_1">
    <path d="M 470.551181 119.055118 
L 470.551181 252.283465 
" clip-path="url(#p3ad7eb5326)" style="fill: none; stroke-dasharray: 1.75,1.12; stroke-dashoffset: 0; stroke: #3c3c3c; stroke-width: 0.7"/>
   </g>
   <g id="patch_13">
    <path d="M 470.551181 252.283465 
Q 447.874016 252.283465 425.910755 252.283465 
" clip-path="url(#p3ad7eb5326)" style="fill: none; stroke-dasharray: 1.75,1.12; stroke-dashoffset: 0; stroke: #3c3c3c; stroke-width: 0.7; stroke-linecap: round"/>
    <path d="M 427.510755 253.183465 
L 425.910755 252.283465 
L 427.510755 251.383465 
z
" clip-path="url(#p3ad7eb5326)" style="fill: #3c3c3c; stroke-dasharray: 1.75,1.12; stroke-dashoffset: 0; stroke: #3c3c3c; stroke-width: 0.7; stroke-linecap: round"/>
   </g>
   <g id="patch_14">
    <path d="M 11.338583 331.086614 
L 20.409449 331.086614 
L 20.409449 322.015748 
L 11.338583 322.015748 
z
" clip-path="url(#p3ad7eb5326)" style="fill: #dce9f5; stroke: #4a78a8; stroke-width: 0.6; stroke-linejoin: miter"/>
   </g>
   <g id="patch_15">
    <path d="M 94.297323 331.086614 
L 103.368189 331.086614 
L 103.368189 322.015748 
L 94.297323 322.015748 
z
" clip-path="url(#p3ad7eb5326)" style="fill: #dff0e3; stroke: #4e8a5e; stroke-width: 0.6; stroke-linejoin: miter"/>
   </g>
   <g id="patch_16">
    <path d="M 194.536063 331.086614 
L 203.606929 331.086614 
L 203.606929 322.015748 
L 194.536063 322.015748 
z
" clip-path="url(#p3ad7eb5326)" style="fill: #e8e1f3; stroke: #6e58a0; stroke-width: 0.6; stroke-linejoin: miter"/>
   </g>
   <g id="patch_17">
    <path d="M 254.454803 331.086614 
L 263.525669 331.086614 
L 263.525669 322.015748 
L 254.454803 322.015748 
z
" clip-path="url(#p3ad7eb5326)" style="fill: #eeeeee; stroke: #6b6b6b; stroke-width: 0.6; stroke-linejoin: miter"/>
   </g>
   <g id="line2d_2">
    <path d="M 359.013543 326.551181 
L 376.021417 326.551181 
" clip-path="url(#p3ad7eb5326)" style="fill: none; stroke-dasharray: 1.75,1.12; stroke-dashoffset: 0; stroke: #3c3c3c; stroke-width: 0.7"/>
   </g>
   <g id="patch_18">
    <path d="M 26.07874 119.055118 
L 104.314961 119.055118 
Q 107.716535 119.055118 107.716535 115.653543 
L 107.716535 60.094488 
Q 107.716535 56.692913 104.314961 56.692913 
L 26.07874 56.692913 
Q 22.677165 56.692913 22.677165 60.094488 
L 22.677165 115.653543 
Q 22.677165 119.055118 26.07874 119.055118 
z
" clip-path="url(#p3ad7eb5326)" style="fill: #dce9f5; stroke: #4a78a8; stroke-width: 0.7; stroke-linejoin: miter"/>
   </g>
   <g id="patch_19">
    <path d="M 128.125984 119.055118 
L 200.692913 119.055118 
Q 204.094488 119.055118 204.094488 115.653543 
L 204.094488 60.094488 
Q 204.094488 56.692913 200.692913 56.692913 
L 128.125984 56.692913 
Q 124.724409 56.692913 124.724409 60.094488 
L 124.724409 115.653543 
Q 124.724409 119.055118 128.125984 119.055118 
z
" clip-path="url(#p3ad7eb5326)" style="fill: #dff0e3; stroke: #4e8a5e; stroke-width: 0.7; stroke-linejoin: miter"/>
   </g>
   <g id="patch_20">
    <path d="M 224.503937 119.055118 
L 308.409449 119.055118 
Q 311.811024 119.055118 311.811024 115.653543 
L 311.811024 60.094488 
Q 311.811024 56.692913 308.409449 56.692913 
L 224.503937 56.692913 
Q 221.102362 56.692913 221.102362 60.094488 
L 221.102362 115.653543 
Q 221.102362 119.055118 224.503937 119.055118 
z
" clip-path="url(#p3ad7eb5326)" style="fill: #dff0e3; stroke: #4e8a5e; stroke-width: 0.7; stroke-linejoin: miter"/>
   </g>
   <g id="patch_21">
    <path d="M 332.220472 119.055118 
L 416.125984 119.055118 
Q 419.527559 119.055118 419.527559 115.653543 
L 419.527559 60.094488 
Q 419.527559 56.692913 416.125984 56.692913 
L 332.220472 56.692913 
Q 328.818898 56.692913 328.818898 60.094488 
L 328.818898 115.653543 
Q 328.818898 119.055118 332.220472 119.055118 
z
" clip-path="url(#p3ad7eb5326)" style="fill: #eeeeee; stroke: #6b6b6b; stroke-width: 0.7; stroke-linejoin: miter"/>
   </g>
   <g id="patch_22">
    <path d="M 439.937008 119.055118 
L 501.165354 119.055118 
Q 504.566929 119.055118 504.566929 115.653543 
L 504.566929 60.094488 
Q 504.566929 56.692913 501.165354 56.692913 
L 439.937008 56.692913 
Q 436.535433 56.692913 436.535433 60.094488 
L 436.535433 115.653543 
Q 436.535433 119.055118 439.937008 119.055118 
z
" clip-path="url(#p3ad7eb5326)" style="fill: #ffffff; stroke-dasharray: 1.75,1.12; stroke-dashoffset: 0; stroke: #6b6b6b; stroke-width: 0.7; stroke-linejoin: miter"/>
   </g>
   <g id="patch_23">
    <path d="M 139.464567 181.417323 
L 416.125984 181.417323 
Q 419.527559 181.417323 419.527559 178.015748 
L 419.527559 150.80315 
Q 419.527559 147.401575 416.125984 147.401575 
L 139.464567 147.401575 
Q 136.062992 147.401575 136.062992 150.80315 
L 136.062992 178.015748 
Q 136.062992 181.417323 139.464567 181.417323 
z
" clip-path="url(#p3ad7eb5326)" style="fill: #e8e1f3; stroke: #6e58a0; stroke-width: 0.7; stroke-linejoin: miter"/>
   </g>
   <g id="patch_24">
    <path d="M 26.07874 283.464567 
L 104.314961 283.464567 
Q 107.716535 283.464567 107.716535 280.062992 
L 107.716535 224.503937 
Q 107.716535 221.102362 104.314961 221.102362 
L 26.07874 221.102362 
Q 22.677165 221.102362 22.677165 224.503937 
L 22.677165 280.062992 
Q 22.677165 283.464567 26.07874 283.464567 
z
" clip-path="url(#p3ad7eb5326)" style="fill: #eeeeee; stroke: #6b6b6b; stroke-width: 0.7; stroke-linejoin: miter"/>
   </g>
   <g id="patch_25">
    <path d="M 128.125984 283.464567 
L 206.362205 283.464567 
Q 209.76378 283.464567 209.76378 280.062992 
L 209.76378 224.503937 
Q 209.76378 221.102362 206.362205 221.102362 
L 128.125984 221.102362 
Q 124.724409 221.102362 124.724409 224.503937 
L 124.724409 280.062992 
Q 124.724409 283.464567 128.125984 283.464567 
z
" clip-path="url(#p3ad7eb5326)" style="fill: #dff0e3; stroke: #4e8a5e; stroke-width: 0.7; stroke-linejoin: miter"/>
   </g>
   <g id="patch_26">
    <path d="M 235.84252 283.464567 
L 319.748031 283.464567 
Q 323.149606 283.464567 323.149606 280.062992 
L 323.149606 224.503937 
Q 323.149606 221.102362 319.748031 221.102362 
L 235.84252 221.102362 
Q 232.440945 221.102362 232.440945 224.503937 
L 232.440945 280.062992 
Q 232.440945 283.464567 235.84252 283.464567 
z
" clip-path="url(#p3ad7eb5326)" style="fill: #dce9f5; stroke: #4a78a8; stroke-width: 0.7; stroke-linejoin: miter"/>
   </g>
   <g id="patch_27">
    <path d="M 343.559055 283.464567 
L 421.795276 283.464567 
Q 425.19685 283.464567 425.19685 280.062992 
L 425.19685 224.503937 
Q 425.19685 221.102362 421.795276 221.102362 
L 343.559055 221.102362 
Q 340.15748 221.102362 340.15748 224.503937 
L 340.15748 280.062992 
Q 340.15748 283.464567 343.559055 283.464567 
z
" clip-path="url(#p3ad7eb5326)" style="fill: #eeeeee; stroke: #6b6b6b; stroke-width: 0.7; stroke-linejoin: miter"/>
   </g>
   <g id="text_1">
    <text style="font-size: 6.6px; font-family: 'Liberation Sans'" transform="translate(42.821819 74.748137)">Source records</text>
    <text style="font-size: 6.6px; font-family: 'Liberation Sans'" transform="translate(65.19685 80.131584)"/>
    <text style="font-size: 6.6px; font-family: 'Liberation Sans'" transform="translate(46.003741 89.580734)">imagery, soil,</text>
    <text style="font-size: 6.6px; font-family: 'Liberation Sans'" transform="translate(36.39971 97.323166)">management, yield,</text>
    <text style="font-size: 6.6px; font-family: 'Liberation Sans'" transform="translate(52.358819 105.717863)">literature</text>
   </g>
   <g id="text_2">
    <text style="font-size: 6.6px; font-family: 'Liberation Sans'" transform="translate(143.128574 74.095871)">Screening and</text>
    <text style="font-size: 6.6px; font-family: 'Liberation Sans'" transform="translate(144.049996 81.838303)">quality control</text>
    <text style="font-size: 6.6px; font-family: 'Liberation Sans'" transform="translate(164.409449 87.874016)"/>
    <text style="font-size: 6.6px; font-family: 'Liberation Sans'" transform="translate(146.616777 97.585619)">units, dates,</text>
    <text style="font-size: 6.6px; font-family: 'Liberation Sans'" transform="translate(141.483214 105.065598)">support, validity</text>
   </g>
   <g id="text_3">
    <text style="font-size: 6.6px; font-family: 'Liberation Sans'" transform="translate(239.305943 74.095871)">Spatial, object and</text>
    <text style="font-size: 6.6px; font-family: 'Liberation Sans'" transform="translate(243.346896 81.838303)">temporal linking</text>
    <text style="font-size: 6.6px; font-family: 'Liberation Sans'" transform="translate(266.456693 87.874016)"/>
    <text style="font-size: 6.6px; font-family: 'Liberation Sans'" transform="translate(233.812474 97.585619)">shared CRS, field IDs,</text>
    <text style="font-size: 6.6px; font-family: 'Liberation Sans'" transform="translate(237.658005 105.065598)">observation periods</text>
   </g>
   <g id="text_4">
    <text style="font-size: 6.6px; font-family: 'Liberation Sans'" transform="translate(349.595447 74.095871)">Reviewed expert</text>
    <text style="font-size: 6.6px; font-family: 'Liberation Sans'" transform="translate(357.110681 82.490568)">annotations</text>
    <text style="font-size: 6.6px; font-family: 'Liberation Sans'" transform="translate(374.173228 87.874016)"/>
    <text style="font-size: 6.6px; font-family: 'Liberation Sans'" transform="translate(345.74476 97.975432)">common definitions</text>
    <text style="font-size: 6.6px; font-family: 'Liberation Sans'" transform="translate(350.964947 105.630723)">D1–D6 × L1–L3</text>
   </g>
   <g id="text_5">
    <text style="font-size: 6.6px; font-family: 'Liberation Sans'" transform="translate(452.201634 74.095871)">Independent</text>
    <text style="font-size: 6.6px; font-family: 'Liberation Sans'" transform="translate(455.507306 82.490568)">evaluation</text>
    <text style="font-size: 6.6px; font-family: 'Liberation Sans'" transform="translate(457.342415 90.233)">evidence</text>
    <text style="font-size: 6.6px; font-family: 'Liberation Sans'" transform="translate(470.551181 95.616447)"/>
    <text style="font-size: 6.6px; font-family: 'Liberation Sans'" transform="translate(458.808853 105.717863)">held out</text>
   </g>
   <g id="text_6">
    <text style="font-size: 6.6px; font-family: 'Liberation Sans'" transform="translate(243.492807 162.244952)">Shared representations</text>
    <text style="font-size: 6.6px; font-family: 'Liberation Sans'" transform="translate(166.450182 169.987383)">geospatial encoder and fusion  ·  mapping branch  ·  vision-language branch</text>
   </g>
   <g id="text_7">
    <text style="font-size: 6.6px; font-family: 'Liberation Sans'" transform="translate(56.211054 238.418179)">Query</text>
    <text style="font-size: 6.6px; font-family: 'Liberation Sans'" transform="translate(65.19685 244.541033)"/>
    <text style="font-size: 6.6px; font-family: 'Liberation Sans'" transform="translate(44.468725 253.990183)">object, period,</text>
    <text style="font-size: 6.6px; font-family: 'Liberation Sans'" transform="translate(35.663397 261.732615)">objective, requested</text>
    <text style="font-size: 6.6px; font-family: 'Liberation Sans'" transform="translate(51.622507 269.475047)">judgment</text>
   </g>
   <g id="text_8">
    <text style="font-size: 6.6px; font-family: 'Liberation Sans'" transform="translate(142.295579 238.50532)">Select applicable</text>
    <text style="font-size: 6.6px; font-family: 'Liberation Sans'" transform="translate(158.438766 246.247752)">inputs</text>
    <text style="font-size: 6.6px; font-family: 'Liberation Sans'" transform="translate(167.244094 252.283465)"/>
    <text style="font-size: 6.6px; font-family: 'Liberation Sans'" transform="translate(142.112532 262.384881)">observations and</text>
    <text style="font-size: 6.6px; font-family: 'Liberation Sans'" transform="translate(136.795407 269.475047)">permitted knowledge</text>
   </g>
   <g id="text_9">
    <text style="font-size: 6.6px; font-family: 'Liberation Sans'" transform="translate(249.362166 238.50532)">Outputs indexed by</text>
    <text style="font-size: 6.6px; font-family: 'Liberation Sans'" transform="translate(248.628947 246.900017)">dimension and level</text>
    <text style="font-size: 6.6px; font-family: 'Liberation Sans'" transform="translate(277.795276 252.283465)"/>
    <text style="font-size: 6.6px; font-family: 'Liberation Sans'" transform="translate(253.403119 261.732615)">maps, attributes,</text>
    <text style="font-size: 6.6px; font-family: 'Liberation Sans'" transform="translate(250.098479 269.475047)">scoped statements</text>
   </g>
   <g id="text_10">
    <text style="font-size: 6.6px; font-family: 'Liberation Sans'" transform="translate(359.565306 235.28637)">Evidence check</text>
    <text style="font-size: 6.6px; font-family: 'Liberation Sans'" transform="translate(365.614618 242.376536)">and scoped</text>
    <text style="font-size: 6.6px; font-family: 'Liberation Sans'" transform="translate(369.102822 249.503311)">response</text>
    <text style="font-size: 6.6px; font-family: 'Liberation Sans'" transform="translate(382.677165 256.15468)"/>
    <text style="font-size: 6.6px; font-family: 'Liberation Sans'" transform="translate(356.261181 266.256096)">unassessed when</text>
    <text style="font-size: 6.6px; font-family: 'Liberation Sans'" transform="translate(364.330712 273.346262)">unsupported</text>
   </g>
   <g id="text_11">
    <text style="font-size: 5.8px; font-family: 'Liberation Sans'; text-anchor: start" x="23.244094" y="328.052158" transform="rotate(-0 23.244094 328.052158)">Spatial data and outputs</text>
   </g>
   <g id="text_12">
    <text style="font-size: 5.8px; font-family: 'Liberation Sans'; text-anchor: start" x="106.202835" y="328.052158" transform="rotate(-0 106.202835 328.052158)">Preparation and input selection</text>
   </g>
   <g id="text_13">
    <text style="font-size: 5.8px; font-family: 'Liberation Sans'; text-anchor: start" x="206.441575" y="328.052158" transform="rotate(-0 206.441575 328.052158)">Shared model</text>
   </g>
   <g id="text_14">
    <text style="font-size: 5.8px; font-family: 'Liberation Sans'; text-anchor: start" x="266.360315" y="328.052158" transform="rotate(-0 266.360315 328.052158)">Queries, annotations and checks</text>
   </g>
   <g id="text_15">
    <text style="font-size: 5.8px; font-family: 'Liberation Sans'; text-anchor: start" x="378.856063" y="328.052158" transform="rotate(-0 378.856063 328.052158)">evaluation path</text>
   </g>
   <g id="text_16">
    <text style="font-weight: 700; font-size: 7.4px; font-family: 'Liberation Sans'; text-anchor: start; fill: #222222" x="17.007874" y="30.348536" transform="rotate(-0 17.007874 30.348536)">Dataset development</text>
   </g>
   <g id="text_17">
    <text style="font-weight: 700; font-size: 7.4px; font-family: 'Liberation Sans'; text-anchor: start; fill: #222222" x="17.007874" y="200.427276" transform="rotate(-0 17.007874 200.427276)">Query-time assessment</text>
   </g>
   <g id="text_18">
    <text style="font-style: italic; font-size: 5.6px; font-family: 'Liberation Sans'; text-anchor: start; fill: #222222" x="269.858268" y="135.228596" transform="rotate(-0 269.858268 135.228596)">curated records</text>
   </g>
   <g id="text_19">
    <text style="font-style: italic; font-size: 5.6px; font-family: 'Liberation Sans'; text-anchor: start; fill: #222222" x="377.574803" y="134.676471" transform="rotate(-0 377.574803 134.676471)">training targets</text>
   </g>
   <g id="text_20">
    <text style="font-style: italic; font-size: 5.6px; font-family: 'Liberation Sans'; fill: #222222" transform="translate(473.952756 205.656282)">evaluation</text>
    <text style="font-style: italic; font-size: 5.6px; font-family: 'Liberation Sans'; fill: #222222" transform="translate(473.952756 211.651673)">only</text>
   </g>
   <g id="text_21">
    <text style="font-style: italic; font-size: 5.9px; font-family: 'Liberation Sans'; text-anchor: middle; fill: #444444" x="260.787402" y="314.75405" transform="rotate(-0 260.787402 314.75405)">Training targets, model-input knowledge and independent evaluation evidence are kept separate; target-bearing records never enter the query-time inputs.</text>
   </g>
  </g>
 </g>
 <defs>
  <clipPath id="p3ad7eb5326">
   <rect x="0" y="0" width="521.574803" height="334.488189"/>
  </clipPath>
 </defs>
</svg>
